<svg xmlns="http://www.w3.org/2000/svg" id="Ebene_2" data-name="Ebene 2" viewBox="0 0 726.76 166.58"><defs><style>      .cls-1 {        fill: #f6f6f6;        stroke-width: 0px;      }    </style></defs><g id="Ebene_1-2" data-name="Ebene 1"><g><path class="cls-1" d="m78.92,161.59c0,3.33-1.67,5-5,5H29.97c-8.16,0-15.2-2.96-21.1-8.88-5.91-5.92-8.87-12.97-8.87-21.14V5C0,1.67,1.68,0,5.05,0h15.13c8.41,0,15.55,2.92,21.44,8.74,5.88,5.83,8.83,12.91,8.83,21.23v11.49h23.56c3.27,0,4.91,1.67,4.91,5v32.97c0,3.33-1.67,4.99-5,4.99h-23.48v35.68c0,3.35,1.66,5.03,5,5.03h18.48c3.33,0,5,1.67,5,5v31.47Z"></path><path class="cls-1" d="m133.86,27.22c0,3.33-1.67,5-5,5h-39.96c-3.33,0-5-1.66-5-5V5c0-3.33,1.66-5,5-5h39.96c3.33,0,5,1.67,5,5v22.23Zm0,134.37c0,3.33-1.67,5-5.02,5h-39.91c-3.35,0-5.02-1.66-5.02-5V46.46c0-3.34,1.67-5.01,5.02-5.01h39.91c3.34,0,5.02,1.67,5.02,5.01v115.12Z"></path><path class="cls-1" d="m246.25,101.15c0,8.16-3.08,14.07-9.24,17.73-4.99,2.83-11.91,4.16-20.73,4h-18.48c-3.33,0-4.99.67-4.99,2s1.67,2,5.02,2h43.41c3.34,0,5.02,1.67,5.02,5v29.72c0,3.33-1.67,5-5.01,5h-39.8c-17.69,0-32.55-6.13-44.56-18.39-12.02-12.26-18.02-27.24-18.02-44.92v-31.78c0-8.34,2.92-15.43,8.76-21.27,5.84-5.84,12.93-8.76,21.28-8.76h47.31c8.51,0,15.64,2.87,21.4,8.62,5.76,5.74,8.64,12.86,8.64,21.35v29.72Zm-32.22,2.69v-10.37c0-3.37-1.68-5.06-5.05-5.06h-15.63c-3.36,0-5.05,1.69-5.05,5.06v10.37c0,3.37,1.68,5.06,5.05,5.06h15.63c3.36,0,5.05-1.69,5.05-5.06Z"></path><path class="cls-1" d="m329.92,36.46c0,3.33-1.67,5-5,5h-18.48c-3.33,0-5,1.67-5,5v8.49h11.99c3.33,0,5,1.67,5,4.99v32.97c0,3.33-1.67,5-5,5h-11.99v63.69c0,3.33-1.67,5-5,5h-40.46c-3.33,0-5-1.66-5-5V30.02c0-8.17,2.95-15.21,8.87-21.13,5.91-5.92,12.94-8.88,21.1-8.88h43.96c3.33,0,5,1.67,5,5v31.47Z"></path><path class="cls-1" d="m442.8,103.77c0,17.69-6.04,32.57-18.11,44.67-12.07,12.1-26.93,18.14-44.58,18.14h-39.96c-3.33,0-5-1.66-5-5V7c0-1.5.5-3.04,1.49-4.63.99-1.58,2.15-2.38,3.48-2.38h14.66c8.28,0,15.32,2.92,21.12,8.74,5.8,5.83,8.7,12.91,8.7,21.23v11.49h.25c15.72,0,29.43,6.51,41.14,19.52,11.2,12.68,16.8,26.95,16.8,42.79Zm-32.47,17.61v-10.24c0-3.33-1.68-5-5.05-5h-15.63c-3.36,0-5.04,1.67-5.04,5v10.24c0,3.33,1.68,5,5.04,5h15.63c3.36,0,5.05-1.66,5.05-5Z"></path><path class="cls-1" d="m497.24,161.59c0,3.33-1.66,5-4.97,5h-39.51c-3.32,0-4.97-1.66-4.97-5V5c0-3.33,1.66-5,4.97-5h14.66c8.28,0,15.32,2.92,21.12,8.76s8.7,12.92,8.7,21.26v131.57Z"></path><path class="cls-1" d="m610.63,161.58c0,3.34-1.67,5.01-4.99,5.01h-40.21c-17.48,0-32.26-6.09-44.33-18.27-12.07-12.18-18.11-27.03-18.11-44.54,0-15.85,5.7-30.2,17.11-43.04,11.4-12.85,24.93-19.27,40.58-19.27h44.96c1.33,0,2.5.83,3.5,2.51,1,1.67,1.5,3.17,1.5,4.5v113.11Zm-32.47-40.01v-10.36c0-3.37-1.68-5.06-5.05-5.06h-15.63c-3.36,0-5.05,1.69-5.05,5.06v10.36c0,3.37,1.68,5.06,5.05,5.06h15.63c3.36,0,5.05-1.69,5.05-5.06Z"></path><path class="cls-1" d="m726.76,161.58c0,3.34-1.67,5.01-5,5.01h-76.17c-8.33,0-15.4-2.92-21.23-8.76-5.83-5.84-8.74-12.93-8.74-21.28V46.45c0-3.33,1.66-5,5-5h14.99c8.32,0,15.4,2.93,21.23,8.77,5.83,5.85,8.74,12.95,8.74,21.3v40.09c0,3.34,1.7,5.01,5.1,5.01h1.53c3.4,0,5.1-1.67,5.1-5.01V46.45c0-3.33,1.66-5,4.97-5h39.51c3.31,0,4.97,1.67,4.97,5v115.12Z"></path></g></g></svg>